<?xml version="1.0" encoding="iso-8859-1"?>
<!-- Generator: Adobe Illustrator 19.0.0, SVG Export Plug-In . SVG Version: 6.00 Build 0)  -->
<svg version="1.1" id="Layer_1" xmlns="http://www.w3.org/2000/svg" xmlns:xlink="http://www.w3.org/1999/xlink" x="0px" y="0px"
	 viewBox="0 0 512 512" style="enable-background:new 0 0 512 512;" xml:space="preserve">
<g>
	<g>
		<path d="M473.384,345.657l-31.699-45.284l-31.699,45.284c-13.122,18.745-5.865,45.005,15.195,53.954
			c5.071,2.154,10.648,3.345,16.504,3.345c5.856,0,11.433-1.192,16.504-3.345C479.248,390.663,486.505,364.402,473.384,345.657z"/>
	</g>
</g>
<g>
	<g>
		<rect x="32.041" y="471.04" width="245.76" height="40.96"/>
	</g>
</g>
<g>
	<g>
		<path d="M359.721,163.84h-22.958c5.691-5.008,9.305-12.321,9.305-20.48c0-6.899-2.591-13.189-6.827-18.002V0h-40.96v125.358
			c-4.235,4.811-6.827,11.103-6.827,18.002c0,8.159,3.614,15.472,9.305,20.48h-77.571V61.44c0-22.528-18.432-40.96-40.96-40.96
			h-54.613c-22.528,0-40.96,18.432-40.96,40.96v368.64h136.533V204.8h54.613v88.747h81.92V204.8c33.878,0,61.44,27.562,61.44,61.44
			h40.96C462.121,209.777,416.185,163.84,359.721,163.84z"/>
	</g>
</g>
<g>
</g>
<g>
</g>
<g>
</g>
<g>
</g>
<g>
</g>
<g>
</g>
<g>
</g>
<g>
</g>
<g>
</g>
<g>
</g>
<g>
</g>
<g>
</g>
<g>
</g>
<g>
</g>
<g>
</g>
</svg>
